<svg xmlns="http://www.w3.org/2000/svg" viewBox="0 0 1200 900" width="1200" height="900">
<defs>
  <style>
    text { font-family: Arial, sans-serif; }
    .label { font-size: 11px; fill: #1e293b; font-weight: 600; }
    .sublabel { font-size: 9px; fill: #64748b; }
    .ip { font-size: 9px; fill: #475569; font-weight: 600; }
    .segment-title { font-size: 11px; font-weight: 700; }
    .note { font-size: 8px; fill: #94a3b8; }
  </style>
  <filter id="sd" x="-20%" y="-20%" width="140%" height="140%">
    <feDropShadow dx="0" dy="2" stdDeviation="3" flood-color="#00000018"/>
  </filter>
  <marker id="arr" markerWidth="10" markerHeight="7" refX="9" refY="3.5" orient="auto">
    <polygon points="0 0, 10 3.5, 0 7" fill="#94a3b8"/>
  </marker>
  <marker id="arr-blk" markerWidth="10" markerHeight="7" refX="9" refY="3.5" orient="auto">
    <polygon points="0 0, 10 3.5, 0 7" fill="#334155"/>
  </marker>

  <!-- CLOUD symbol -->
  <symbol id="cloud" viewBox="0 0 80 52">
    <ellipse cx="20" cy="34" rx="14" ry="12" fill="#bfdbfe" stroke="#3b82f6" stroke-width="1.5"/>
    <ellipse cx="36" cy="26" rx="18" ry="16" fill="#bfdbfe" stroke="#3b82f6" stroke-width="1.5"/>
    <ellipse cx="56" cy="30" rx="16" ry="14" fill="#bfdbfe" stroke="#3b82f6" stroke-width="1.5"/>
    <ellipse cx="66" cy="38" rx="12" ry="10" fill="#bfdbfe" stroke="#3b82f6" stroke-width="1.5"/>
    <rect x="10" y="38" width="58" height="8" fill="#bfdbfe"/>
    <line x1="10" y1="46" x2="68" y2="46" stroke="#3b82f6" stroke-width="1.5"/>
  </symbol>

  <!-- FIREWALL symbol -->
  <symbol id="firewall" viewBox="0 0 60 70">
    <rect x="5" y="8" width="50" height="54" rx="4" fill="#1e3a5f" stroke="#3b82f6" stroke-width="2"/>
    <!-- horizontal slots -->
    <rect x="12" y="18" width="36" height="5" rx="1" fill="#3b82f6" opacity="0.6"/>
    <rect x="12" y="28" width="36" height="5" rx="1" fill="#3b82f6" opacity="0.6"/>
    <rect x="12" y="38" width="36" height="5" rx="1" fill="#f59e0b" opacity="0.8"/>
    <rect x="12" y="48" width="36" height="5" rx="1" fill="#3b82f6" opacity="0.6"/>
    <!-- top light -->
    <circle cx="48" cy="13" r="3" fill="#22c55e"/>
    <!-- brand line -->
    <rect x="5" y="8" width="50" height="8" rx="4" fill="#0f2d5a"/>
  </symbol>

  <!-- ROUTER symbol -->
  <symbol id="router" viewBox="0 0 64 64">
    <circle cx="32" cy="32" r="28" fill="#f0f9ff" stroke="#0284c7" stroke-width="2"/>
    <!-- arrows showing routing -->
    <line x1="14" y1="32" x2="50" y2="32" stroke="#0284c7" stroke-width="2" marker-end="url(#arr)"/>
    <line x1="32" y1="14" x2="32" y2="50" stroke="#0284c7" stroke-width="2" marker-end="url(#arr)"/>
    <circle cx="32" cy="32" r="6" fill="#0284c7"/>
    <!-- antennas -->
    <line x1="20" y1="10" x2="24" y2="18" stroke="#0284c7" stroke-width="1.5"/>
    <line x1="44" y1="10" x2="40" y2="18" stroke="#0284c7" stroke-width="1.5"/>
    <circle cx="20" cy="9" r="2" fill="#0284c7"/>
    <circle cx="44" cy="9" r="2" fill="#0284c7"/>
  </symbol>

  <!-- SWITCH symbol -->
  <symbol id="sw" viewBox="0 0 70 36">
    <rect x="2" y="6" width="66" height="24" rx="4" fill="#e0f2fe" stroke="#0284c7" stroke-width="1.5"/>
    <!-- ports -->
    <rect x="8"  y="12" width="7" height="12" rx="1" fill="#0284c7" opacity="0.7"/>
    <rect x="18" y="12" width="7" height="12" rx="1" fill="#0284c7" opacity="0.7"/>
    <rect x="28" y="12" width="7" height="12" rx="1" fill="#0284c7" opacity="0.7"/>
    <rect x="38" y="12" width="7" height="12" rx="1" fill="#22c55e" opacity="0.8"/>
    <rect x="48" y="12" width="7" height="12" rx="1" fill="#22c55e" opacity="0.8"/>
    <!-- arrows on top -->
    <line x1="11" y1="6" x2="11" y2="2" stroke="#0284c7" stroke-width="1.2" marker-end="url(#arr)"/>
    <line x1="21" y1="2" x2="21" y2="6" stroke="#0284c7" stroke-width="1.2" marker-end="url(#arr)"/>
    <line x1="31" y1="6" x2="31" y2="2" stroke="#0284c7" stroke-width="1.2" marker-end="url(#arr)"/>
    <line x1="41" y1="2" x2="41" y2="6" stroke="#0284c7" stroke-width="1.2" marker-end="url(#arr)"/>
    <line x1="51" y1="6" x2="51" y2="2" stroke="#0284c7" stroke-width="1.2" marker-end="url(#arr)"/>
  </symbol>

  <!-- SERVER symbol -->
  <symbol id="server" viewBox="0 0 52 70">
    <rect x="4" y="4"  width="44" height="18" rx="3" fill="#f1f5f9" stroke="#475569" stroke-width="1.5"/>
    <rect x="4" y="26" width="44" height="18" rx="3" fill="#f1f5f9" stroke="#475569" stroke-width="1.5"/>
    <rect x="4" y="48" width="44" height="18" rx="3" fill="#f1f5f9" stroke="#475569" stroke-width="1.5"/>
    <circle cx="42" cy="13" r="3" fill="#22c55e"/>
    <circle cx="42" cy="35" r="3" fill="#22c55e"/>
    <circle cx="42" cy="57" r="3" fill="#f59e0b"/>
    <rect x="10" y="10" width="20" height="6" rx="1" fill="#cbd5e1"/>
    <rect x="10" y="32" width="20" height="6" rx="1" fill="#cbd5e1"/>
    <rect x="10" y="54" width="20" height="6" rx="1" fill="#cbd5e1"/>
  </symbol>

  <!-- PC symbol -->
  <symbol id="pc" viewBox="0 0 56 58">
    <!-- monitor -->
    <rect x="4" y="2" width="48" height="34" rx="3" fill="#e2e8f0" stroke="#475569" stroke-width="1.5"/>
    <rect x="8" y="6" width="40" height="26" rx="2" fill="#bfdbfe"/>
    <!-- stand -->
    <rect x="22" y="36" width="12" height="8" fill="#94a3b8"/>
    <rect x="14" y="44" width="28" height="4" rx="2" fill="#94a3b8"/>
    <!-- keyboard -->
    <rect x="6" y="50" width="44" height="7" rx="2" fill="#e2e8f0" stroke="#94a3b8" stroke-width="1"/>
  </symbol>

  <!-- LAPTOP symbol -->
  <symbol id="laptop" viewBox="0 0 60 48">
    <rect x="6" y="2" width="48" height="32" rx="3" fill="#e2e8f0" stroke="#475569" stroke-width="1.5"/>
    <rect x="10" y="6" width="40" height="24" rx="1" fill="#fef3c7"/>
    <rect x="0" y="34" width="60" height="6" rx="2" fill="#94a3b8" stroke="#64748b" stroke-width="1"/>
    <rect x="20" y="34" width="20" height="3" rx="1" fill="#64748b"/>
  </symbol>

  <!-- HOST PC (for mgmt) -->
  <symbol id="hostpc" viewBox="0 0 56 58">
    <rect x="4" y="2" width="48" height="34" rx="3" fill="#e2e8f0" stroke="#475569" stroke-width="1.5"/>
    <rect x="8" y="6" width="40" height="26" rx="2" fill="#d1fae5"/>
    <rect x="22" y="36" width="12" height="8" fill="#94a3b8"/>
    <rect x="14" y="44" width="28" height="4" rx="2" fill="#94a3b8"/>
    <rect x="6" y="50" width="44" height="7" rx="2" fill="#e2e8f0" stroke="#94a3b8" stroke-width="1"/>
  </symbol>
</defs>

<!-- ═══════════════════════════════════════════════════════ -->
<!--  BACKGROUND                                            -->
<!-- ═══════════════════════════════════════════════════════ -->
<rect width="1200" height="900" fill="#f0f4f8"/>

<!-- faint grid -->
<defs>
  <pattern id="grid" width="40" height="40" patternUnits="userSpaceOnUse">
    <path d="M 40 0 L 0 0 0 40" fill="none" stroke="#e2e8f0" stroke-width="0.6"/>
  </pattern>
</defs>
<rect width="1200" height="900" fill="url(#grid)"/>

<!-- Title banner -->
<rect x="0" y="0" width="1200" height="48" fill="#1e293b" filter="url(#sd)"/>
<text x="24" y="28" fill="#f8fafc" font-size="16" font-weight="700" font-family="Arial">Enterprise IT Infrastructure — Network Topology</text>
<text x="24" y="42" fill="#64748b" font-size="10" font-family="Arial">Phase 1 · Baseline · company.local · VirtualBox + OPNsense · Windows Server 2019</text>
<rect x="1080" y="10" width="100" height="26" rx="4" fill="#0f172a"/>
<text x="1130" y="27" text-anchor="middle" fill="#f59e0b" font-size="9" font-weight="700" font-family="Arial">PHASE 1 / 2</text>

<!-- ═══════════════════════════════════════════════════════ -->
<!--  INTERNET (top center)                                 -->
<!-- ═══════════════════════════════════════════════════════ -->
<use href="#cloud" x="524" y="62" width="80" height="52"/>
<text x="564" y="128" text-anchor="middle" class="label">INTERNET</text>
<text x="564" y="141" text-anchor="middle" class="sublabel">WAN / NAT · 10.0.2.15</text>

<!-- Internet → Firewall line -->
<line x1="564" y1="114" x2="564" y2="174" stroke="#334155" stroke-width="2" marker-end="url(#arr-blk)"/>

<!-- ═══════════════════════════════════════════════════════ -->
<!--  OPNSENSE FIREWALL (center)                            -->
<!-- ═══════════════════════════════════════════════════════ -->
<use href="#firewall" x="534" y="174" width="60" height="70"/>
<rect x="476" y="252" width="176" height="52" rx="4" fill="#1e3a5f" stroke="#3b82f6" stroke-width="1.5" filter="url(#sd)"/>
<text x="564" y="268" text-anchor="middle" fill="#f1f5f9" font-size="11" font-weight="700">OPNsense Firewall</text>
<text x="564" y="281" text-anchor="middle" fill="#7dd3fc" font-size="8.5">em0 WAN · em1 MGMT · em2–em5</text>
<text x="564" y="293" text-anchor="middle" fill="#64748b" font-size="8">DHCP Relay · Routing · Segmentation</text>

<!-- Host PC (MGMT) -->
<use href="#hostpc" x="750" y="226" width="46" height="48"/>
<line x1="710" y1="258" x2="750" y2="258" stroke="#94a3b8" stroke-width="1.2" stroke-dasharray="5,3"/>
<text x="773" y="282" text-anchor="middle" class="label">Host PC</text>
<text x="773" y="293" text-anchor="middle" class="sublabel">MGMT · 192.168.56.1</text>
<text x="773" y="304" text-anchor="middle" class="sublabel">GUI access only</text>

<!-- ═══════════════════════════════════════════════════════ -->
<!--  MAIN DISTRIBUTION BUS                                 -->
<!-- ═══════════════════════════════════════════════════════ -->
<line x1="120" y1="340" x2="1080" y2="340" stroke="#334155" stroke-width="2.5"/>
<!-- vertical from FW to bus -->
<line x1="564" y1="304" x2="564" y2="340" stroke="#334155" stroke-width="2.5"/>

<!-- Bus drop points -->
<circle cx="160"  cy="340" r="5" fill="#334155"/>
<circle cx="390"  cy="340" r="5" fill="#334155"/>
<circle cx="620"  cy="340" r="5" fill="#334155"/>
<circle cx="920"  cy="340" r="5" fill="#334155"/>

<!-- Vertical drops to zones -->
<line x1="160"  y1="340" x2="160"  y2="370" stroke="#22c55e" stroke-width="2"/>
<line x1="390"  y1="340" x2="390"  y2="370" stroke="#3b82f6" stroke-width="2"/>
<line x1="620"  y1="340" x2="620"  y2="370" stroke="#f97316" stroke-width="2"/>
<line x1="920"  y1="340" x2="920"  y2="370" stroke="#eab308" stroke-width="2"/>

<!-- ═══════════════════════════════════════════════════════ -->
<!--  ZONE BOXES                                            -->
<!-- ═══════════════════════════════════════════════════════ -->

<!-- ── HR_NET ─────────────────── -->
<rect x="60" y="370" width="200" height="360" rx="8" fill="#f0fdf4" stroke="#22c55e" stroke-width="2" filter="url(#sd)"/>
<rect x="60" y="370" width="200" height="32" rx="8" fill="#22c55e"/>
<rect x="60" y="390" width="200" height="12" fill="#22c55e"/>
<text x="160" y="391" text-anchor="middle" fill="#ffffff" font-size="12" font-weight="700">HR_NET</text>
<text x="160" y="404" text-anchor="middle" fill="#dcfce7" font-size="9">10.10.10.0/24 · OPT1 · em2</text>

<!-- Switch inside HR -->
<use href="#sw" x="95" y="418" width="130" height="34"/>
<text x="160" y="463" text-anchor="middle" class="sublabel">Virtual Switch</text>

<!-- HR PCs -->
<use href="#pc" x="80"  y="476" width="46" height="48"/>
<use href="#pc" x="194" y="476" width="46" height="48"/>
<line x1="103" y1="452" x2="103" y2="476" stroke="#94a3b8" stroke-width="1.2"/>
<line x1="217" y1="452" x2="217" y2="476" stroke="#94a3b8" stroke-width="1.2"/>
<text x="103"  y="534" text-anchor="middle" class="label">HR-PC1</text>
<text x="103"  y="546" text-anchor="middle" class="sublabel">Rima.HR</text>
<text x="217"  y="534" text-anchor="middle" class="label">HR-PC2</text>
<text x="217"  y="546" text-anchor="middle" class="sublabel">Syrin.HR</text>

<!-- HR zone info -->
<rect x="72" y="560" width="176" height="90" rx="4" fill="#ffffff" stroke="#bbf7d0" stroke-width="1"/>
<text x="160" y="576" text-anchor="middle" fill="#15803d" font-size="9" font-weight="700">Zone Details</text>
<text x="80" y="591" class="sublabel">GW   10.10.10.1</text>
<text x="80" y="604" class="sublabel">DHCP .100 – .200</text>
<text x="80" y="617" class="sublabel">DNS   DC1 · DC2</text>
<text x="80" y="630" fill="#f97316" font-size="8">Rules  allow any (temp)</text>
<text x="80" y="643" class="sublabel">Users  HR_Users group</text>

<!-- HR block rule reminder -->
<rect x="72" y="656" width="176" height="18" rx="3" fill="#fef2f2" stroke="#fca5a5" stroke-width="1"/>
<text x="160" y="668" text-anchor="middle" fill="#dc2626" font-size="7.5" font-weight="600">Cannot reach GUEST_NET</text>

<!-- ── IT_NET ─────────────────── -->
<rect x="290" y="370" width="200" height="360" rx="8" fill="#eff6ff" stroke="#3b82f6" stroke-width="2" filter="url(#sd)"/>
<rect x="290" y="370" width="200" height="32" rx="8" fill="#3b82f6"/>
<rect x="290" y="390" width="200" height="12" fill="#3b82f6"/>
<text x="390" y="391" text-anchor="middle" fill="#ffffff" font-size="12" font-weight="700">IT_NET</text>
<text x="390" y="404" text-anchor="middle" fill="#dbeafe" font-size="9">10.10.20.0/24 · OPT2 · em3</text>

<use href="#sw" x="325" y="418" width="130" height="34"/>
<text x="390" y="463" text-anchor="middle" class="sublabel">Virtual Switch</text>

<!-- IT PCs -->
<use href="#pc"     x="306" y="476" width="46" height="48"/>
<use href="#laptop" x="422" y="482" width="46" height="40"/>
<line x1="329" y1="452" x2="329" y2="476" stroke="#94a3b8" stroke-width="1.2"/>
<line x1="445" y1="452" x2="445" y2="482" stroke="#94a3b8" stroke-width="1.2"/>
<text x="329"  y="534" text-anchor="middle" class="label">IT-PC</text>
<text x="329"  y="546" text-anchor="middle" class="sublabel">Admin.IT</text>
<text x="445"  y="531" text-anchor="middle" class="label">Remote</text>
<text x="445"  y="543" text-anchor="middle" class="sublabel">Remote.IT</text>

<rect x="302" y="560" width="176" height="90" rx="4" fill="#ffffff" stroke="#bfdbfe" stroke-width="1"/>
<text x="390" y="576" text-anchor="middle" fill="#1d4ed8" font-size="9" font-weight="700">Zone Details</text>
<text x="310" y="591" class="sublabel">GW   10.10.20.1</text>
<text x="310" y="604" class="sublabel">DHCP .100 – .200</text>
<text x="310" y="617" class="sublabel">DNS   DC1 · DC2</text>
<text x="310" y="630" fill="#f97316" font-size="8">Rules  allow any (temp)</text>
<text x="310" y="643" class="sublabel">Users  IT_Admins group</text>

<rect x="302" y="656" width="176" height="18" rx="3" fill="#fef2f2" stroke="#fca5a5" stroke-width="1"/>
<text x="390" y="668" text-anchor="middle" fill="#dc2626" font-size="7.5" font-weight="600">Cannot reach GUEST_NET</text>

<!-- ── SERVER_NET ──────────────── -->
<rect x="520" y="370" width="200" height="360" rx="8" fill="#fff7ed" stroke="#f97316" stroke-width="2" filter="url(#sd)"/>
<rect x="520" y="370" width="200" height="32" rx="8" fill="#f97316"/>
<rect x="520" y="390" width="200" height="12" fill="#f97316"/>
<text x="620" y="391" text-anchor="middle" fill="#ffffff" font-size="12" font-weight="700">SERVER_NET</text>
<text x="620" y="404" text-anchor="middle" fill="#ffedd5" font-size="9">10.10.30.0/24 · OPT3 · em4</text>

<use href="#sw" x="555" y="418" width="130" height="34"/>
<text x="620" y="463" text-anchor="middle" class="sublabel">Virtual Switch</text>

<!-- Servers -->
<use href="#server" x="532" y="470" width="44" height="58"/>
<use href="#server" x="598" y="470" width="44" height="58"/>
<use href="#server" x="664" y="470" width="44" height="58"/>
<line x1="554" y1="452" x2="554" y2="470" stroke="#94a3b8" stroke-width="1.2"/>
<line x1="620" y1="452" x2="620" y2="470" stroke="#94a3b8" stroke-width="1.2"/>
<line x1="686" y1="452" x2="686" y2="470" stroke="#94a3b8" stroke-width="1.2"/>

<text x="554" y="538" text-anchor="middle" fill="#c2410c" font-size="10" font-weight="700">DC1</text>
<text x="554" y="550" text-anchor="middle" class="sublabel">10.10.30.10</text>
<text x="554" y="562" text-anchor="middle" class="sublabel">AD DS·DNS</text>
<text x="554" y="574" text-anchor="middle" class="sublabel">DHCP·DFS</text>

<text x="620" y="538" text-anchor="middle" fill="#475569" font-size="10" font-weight="700">DC2</text>
<text x="620" y="550" text-anchor="middle" class="sublabel">10.10.30.11</text>
<text x="620" y="562" text-anchor="middle" class="sublabel">AD DS·DNS</text>
<text x="620" y="574" text-anchor="middle" class="sublabel">Replica·DFS</text>

<text x="686" y="538" text-anchor="middle" fill="#475569" font-size="10" font-weight="700">FILE1</text>
<text x="686" y="550" text-anchor="middle" class="sublabel">10.10.30.20</text>
<text x="686" y="562" text-anchor="middle" class="sublabel">SMB·FTP</text>
<text x="686" y="574" text-anchor="middle" class="sublabel">Profiles</text>

<!-- DC1 ↔ DC2 replication -->
<path d="M576,502 Q587,496 598,502" stroke="#f97316" stroke-width="1.2" fill="none" stroke-dasharray="3,2" marker-end="url(#arr)"/>
<path d="M598,514 Q587,520 576,514" stroke="#f97316" stroke-width="1.2" fill="none" stroke-dasharray="3,2" marker-end="url(#arr)"/>
<text x="587" y="510" text-anchor="middle" fill="#f97316" font-size="7">AD repl</text>

<rect x="532" y="588" width="176" height="76" rx="4" fill="#ffffff" stroke="#fed7aa" stroke-width="1"/>
<text x="620" y="604" text-anchor="middle" fill="#c2410c" font-size="9" font-weight="700">Zone Details</text>
<text x="540" y="619" class="sublabel">GW     10.10.30.1</text>
<text x="540" y="632" class="sublabel">IPs      Static only</text>
<text x="540" y="645" class="sublabel">DNS    Self-hosted</text>
<text x="540" y="658" fill="#f97316" font-size="8">Rules   allow any (temp)</text>

<rect x="532" y="672" width="176" height="42" rx="4" fill="#fff7ed" stroke="#fed7aa" stroke-width="1"/>
<text x="620" y="686" text-anchor="middle" fill="#c2410c" font-size="8" font-weight="700">FTP on FILE1 (port 21)</text>
<text x="620" y="698" text-anchor="middle" fill="#dc2626" font-size="7.5">Cleartext — no TLS (Phase 1)</text>
<text x="620" y="708" text-anchor="middle" class="sublabel">Passive ports 50000–50100</text>

<!-- ── GUEST_NET ───────────────── -->
<rect x="750" y="370" width="200" height="360" rx="8" fill="#fefce8" stroke="#eab308" stroke-width="2" filter="url(#sd)"/>
<rect x="750" y="370" width="200" height="32" rx="8" fill="#eab308"/>
<rect x="750" y="390" width="200" height="12" fill="#eab308"/>
<text x="850" y="391" text-anchor="middle" fill="#ffffff" font-size="12" font-weight="700">GUEST_NET</text>
<text x="850" y="404" text-anchor="middle" fill="#fef9c3" font-size="9">10.10.40.0/24 · OPT4 · em5</text>

<use href="#sw" x="785" y="418" width="130" height="34"/>
<text x="850" y="463" text-anchor="middle" class="sublabel">Virtual Switch</text>

<!-- Guest devices -->
<use href="#laptop" x="782" y="476" width="46" height="40"/>
<use href="#laptop" x="872" y="476" width="46" height="40"/>
<line x1="805" y1="452" x2="805" y2="476" stroke="#94a3b8" stroke-width="1.2"/>
<line x1="895" y1="452" x2="895" y2="476" stroke="#94a3b8" stroke-width="1.2"/>
<text x="805" y="526" text-anchor="middle" class="label">Guest-1</text>
<text x="805" y="538" text-anchor="middle" class="sublabel">Untrusted</text>
<text x="895" y="526" text-anchor="middle" class="label">Guest-2</text>
<text x="895" y="538" text-anchor="middle" class="sublabel">Untrusted</text>

<rect x="762" y="552" width="176" height="76" rx="4" fill="#ffffff" stroke="#fde68a" stroke-width="1"/>
<text x="850" y="568" text-anchor="middle" fill="#854d0e" font-size="9" font-weight="700">Zone Details</text>
<text x="770" y="583" class="sublabel">GW   10.10.40.1</text>
<text x="770" y="596" class="sublabel">DHCP .100 – .200</text>
<text x="770" y="609" fill="#dc2626" font-size="8">DNS   FW ONLY (isolated)</text>
<text x="770" y="622" class="sublabel">No internal resolution</text>

<!-- GUEST rules box -->
<rect x="762" y="636" width="176" height="80" rx="4" fill="#fef2f2" stroke="#fca5a5" stroke-width="1.2"/>
<text x="850" y="652" text-anchor="middle" fill="#dc2626" font-size="8.5" font-weight="700">Firewall Policy (ordered)</text>
<text x="770" y="666" fill="#15803d" font-size="8">1  PASS  DHCP (port 67)</text>
<text x="770" y="678" fill="#15803d" font-size="8">2  PASS  DNS  (port 53) FW</text>
<text x="770" y="690" fill="#dc2626" font-size="8" font-weight="600">3  BLOCK all internal nets</text>
<text x="770" y="702" fill="#15803d" font-size="8">4  PASS  internet (any)</text>

<!-- BLOCKED cross line between GUEST and SERVER zones -->
<line x1="722" y1="520" x2="750" y2="520" stroke="#ef4444" stroke-width="2" stroke-dasharray="6,3"/>
<rect x="710" y="511" width="40" height="18" rx="3" fill="#fef2f2" stroke="#fca5a5" stroke-width="1.2"/>
<text x="730" y="523" text-anchor="middle" fill="#dc2626" font-size="7.5" font-weight="700">BLOCK</text>

<!-- ═══════════════════════════════════════════════════════ -->
<!--  LEGEND + IP TABLE (bottom right)                     -->
<!-- ═══════════════════════════════════════════════════════ -->
<rect x="990" y="370" width="192" height="360" rx="8" fill="#ffffff" stroke="#e2e8f0" stroke-width="1.5" filter="url(#sd)"/>
<rect x="990" y="370" width="192" height="28" rx="8" fill="#1e293b"/>
<rect x="990" y="390" width="192" height="8" fill="#1e293b"/>
<text x="1086" y="388" text-anchor="middle" fill="#f1f5f9" font-size="10" font-weight="700">IP Address Map</text>

<text x="1000" y="414" fill="#475569" font-size="8.5" font-weight="700">Host</text>
<text x="1100" y="414" fill="#475569" font-size="8.5" font-weight="700">IP</text>
<line x1="998" y1="418" x2="1174" y2="418" stroke="#e2e8f0" stroke-width="1"/>

<text x="1000" y="432" class="sublabel">OPNsense WAN</text>
<text x="1100" y="432" class="ip">10.0.2.15</text>
<text x="1000" y="446" class="sublabel">OPNsense MGMT</text>
<text x="1100" y="446" class="ip">192.168.56.10</text>
<text x="1000" y="460" class="sublabel">HR Gateway</text>
<text x="1100" y="460" class="ip">10.10.10.1</text>
<text x="1000" y="474" class="sublabel">IT Gateway</text>
<text x="1100" y="474" class="ip">10.10.20.1</text>
<text x="1000" y="488" class="sublabel">SERVER Gateway</text>
<text x="1100" y="488" class="ip">10.10.30.1</text>
<text x="1000" y="502" class="sublabel">GUEST Gateway</text>
<text x="1100" y="502" class="ip">10.10.40.1</text>
<line x1="998" y1="508" x2="1174" y2="508" stroke="#e2e8f0" stroke-width="1"/>
<text x="1000" y="522" fill="#c2410c" font-size="8.5" font-weight="700">DC1</text>
<text x="1100" y="522" class="ip">10.10.30.10</text>
<text x="1000" y="536" class="sublabel">DC2</text>
<text x="1100" y="536" class="ip">10.10.30.11</text>
<text x="1000" y="550" class="sublabel">FILE1</text>
<text x="1100" y="550" class="ip">10.10.30.20</text>
<line x1="998" y1="556" x2="1174" y2="556" stroke="#e2e8f0" stroke-width="1"/>

<!-- Legend icons -->
<text x="1086" y="574" text-anchor="middle" fill="#475569" font-size="8.5" font-weight="700">Legend</text>
<use href="#server" x="1000" y="582" width="20" height="26"/>
<text x="1026" y="598" class="sublabel">Server</text>
<use href="#pc" x="1060" y="582" width="20" height="22"/>
<text x="1086" y="598" class="sublabel">Workstation</text>
<use href="#laptop" x="1120" y="584" width="20" height="18"/>
<text x="1144" y="598" class="sublabel">Laptop</text>

<use href="#sw" x="1000" y="610" width="50" height="26"/>
<text x="1026" y="648" class="sublabel">Switch</text>
<use href="#firewall" x="1080" y="606" width="24" height="28"/>
<text x="1092" y="648" class="sublabel">Firewall</text>

<!-- Line legend -->
<line x1="1000" y1="662" x2="1040" y2="662" stroke="#334155" stroke-width="2"/>
<text x="1048" y="666" class="sublabel">Routed link</text>
<line x1="1000" y1="676" x2="1040" y2="676" stroke="#94a3b8" stroke-width="1.2" stroke-dasharray="5,3"/>
<text x="1048" y="680" class="sublabel">Management</text>
<line x1="1000" y1="690" x2="1040" y2="690" stroke="#ef4444" stroke-width="1.5" stroke-dasharray="6,3"/>
<text x="1048" y="694" class="sublabel">Blocked path</text>

<!-- ═══════════════════════════════════════════════════════ -->
<!--  SECURITY GAPS BANNER (bottom)                        -->
<!-- ═══════════════════════════════════════════════════════ -->
<rect x="36" y="752" width="930" height="122" rx="6" fill="#ffffff" stroke="#e2e8f0" stroke-width="1.5" filter="url(#sd)"/>
<rect x="36" y="752" width="930" height="26" rx="6" fill="#fef2f2"/>
<rect x="36" y="770" width="930" height="8" fill="#fef2f2"/>
<text x="501" y="769" text-anchor="middle" fill="#dc2626" font-size="10" font-weight="700">⚠  Phase 1 — Intentional Security Gaps (hardened in Phase 2: Zero Trust)</text>

<text x="56" y="792" fill="#64748b" font-size="8.5">No default-deny east/west</text>
<text x="56" y="806" fill="#64748b" font-size="8.5">FTP port 21 — cleartext</text>
<text x="56" y="820" fill="#64748b" font-size="8.5">LDAP not enforced as LDAPS</text>

<text x="256" y="792" fill="#64748b" font-size="8.5">SMB signing not enforced</text>
<text x="256" y="806" fill="#64748b" font-size="8.5">NTLM not restricted</text>
<text x="256" y="820" fill="#64748b" font-size="8.5">No Kerberos-only policy</text>

<text x="456" y="792" fill="#64748b" font-size="8.5">No MFA on any account</text>
<text x="456" y="806" fill="#64748b" font-size="8.5">No AD CS / PKI</text>
<text x="456" y="820" fill="#64748b" font-size="8.5">No tiered admin model (PAW)</text>

<text x="656" y="792" fill="#64748b" font-size="8.5">No IDS / IPS</text>
<text x="656" y="806" fill="#64748b" font-size="8.5">No SIEM / log aggregation</text>
<text x="656" y="820" fill="#64748b" font-size="8.5">No audit policy via GPO</text>

<rect x="36" y="832" width="930" height="36" rx="6" fill="#f0fdf4" stroke="#bbf7d0" stroke-width="1"/>
<text x="501" y="848" text-anchor="middle" fill="#15803d" font-size="9" font-weight="700">Phase 2 — Zero Trust Hardening:</text>
<text x="501" y="862" text-anchor="middle" fill="#6b7280" font-size="8.5">Default-deny micro-segmentation · AD CS/PKI · FTPS · LDAPS · MFA · Tiered Admin · SIEM + Auditing · SMB hardening</text>

<!-- Footer -->
<rect x="0" y="876" width="1200" height="24" fill="#0f172a"/>
<text x="24" y="891" fill="#334155" font-size="8">company.local  ·  VirtualBox  ·  OPNsense  ·  Windows Server 2019  ·  AD DS · DNS · DHCP · DFS · SMB · IIS/FTP · Roaming Profiles</text>
<text x="1176" y="891" text-anchor="end" fill="#334155" font-size="8">Phase 1 of 2</text>
</svg>
